PathFileType	4	(x/y/z)	A01_SLOW_T0026.trc
DataRate	CameraRate	NumFrames	NumMarkers	Units	OrigDataRate	OrigDataStartFrame	OrigNumFrames
240	240	7	48	mm	240	181	361
Frame#	Time	TOP_HEAD			R_AC			L_AC			R_ASIS			L_ASIS			R_PSIS			L_PSIS			SACRAL			L_IC			R_IC			L_GT			R_GT			R_LAT_KNEE			R_MED_KNEE			L_MED_KNEE			L_LAT_KNEE			R_TOE			L_TOE			R_1ST_MET			L_1ST_MET			L_5TH_MET			R_5TH_MET			R_LAT_ANK			R_MED_ANK			L_MED_ANK			L_LAT_ANK			L_HEEL_SUP			R_HEEL_SUP			L_HEEL_LAT			R_HEEL_LAT			L_HEEL_MED			R_HEEL_MED			R_LL_PROX_POST			R_LL_PROX_ANT			R_LL_DIST_ANT			R_LL_DIST_POST			R_THIGH_PROX_POST			R_THIGH_PROX_ANT			R_THIGH_DIST_ANT			R_THIGH_DIST_POST			L_PROS_PROX_ANT			L_PROS_PROX_POST			L_PROS_DIST_POST			L_PROS_DIST_ANT			L_THIGH_PROX_ANT			L_THIGH_PROX_POST			L_THIGH_DIST_POST			L_THIGH_DIST_ANT			
		X1	Y1	Z1	X2	Y2	Z2	X3	Y3	Z3	X4	Y4	Z4	X5	Y5	Z5	X6	Y6	Z6	X7	Y7	Z7	X8	Y8	Z8	X9	Y9	Z9	X10	Y10	Z10	X11	Y11	Z11	X12	Y12	Z12	X13	Y13	Z13	X14	Y14	Z14	X15	Y15	Z15	X16	Y16	Z16	X17	Y17	Z17	X18	Y18	Z18	X19	Y19	Z19	X20	Y20	Z20	X21	Y21	Z21	X22	Y22	Z22	X23	Y23	Z23	X24	Y24	Z24	X25	Y25	Z25	X26	Y26	Z26	X27	Y27	Z27	X28	Y28	Z28	X29	Y29	Z29	X30	Y30	Z30	X31	Y31	Z31	X32	Y32	Z32	X33	Y33	Z33	X34	Y34	Z34	X35	Y35	Z35	X36	Y36	Z36	X37	Y37	Z37	X38	Y38	Z38	X39	Y39	Z39	X40	Y40	Z40	X41	Y41	Z41	X42	Y42	Z42	X43	Y43	Z43	X44	Y44	Z44	X45	Y45	Z45	X46	Y46	Z46	X47	Y47	Z47	X48	Y48	Z48	

181	0.75208	145.93	1760.8	306.45	-72.005	1531	546.34	-72.617	1536.3	86.549	-49.897	1071.8	523.64	-66.375	1006	171.18	-271.35	1066	413.53	-268.16	1077.5	281.31	-287.69	1043.4	346.3	-91.897	1131.5	132.32	-95.57	1168.3	536.07	-145.47	934.99	136.95	-98.152	957.51	569.65	21.5	566.45	508.23	41.368	570.08	373.75	-213.57	542.03	366.37	-232.08	552.39	209.85	405.86	212.58	431.69	-238.02	72.922	274.58	348.68	151.33	383.65	-320.39	57.485	330.63	-352.62	50.98	205.02	328.16	128.76	514.87	196.7	126.7	490.62	195.43	133.88	389.15	-417.56	152.72	315.37	-452.17	153.82	247.93	-553.73	118.71	289.72	125.74	45.748	431.46	-550.04	87.953	258.76	145.49	28.746	466.84	-538.31	86.515	322.08	150.96	27.773	407.04	3.2414	364.84	512.28	70.141	385.57	534.21	103.8	318.6	519.61	52.739	298.21	506.47	-91.559	807.36	551.65	-32.624	845.24	556.91	-3.291	759.36	545.92	-60.992	723.97	538.47	-221.09	458.89	224.06	-272.17	479.54	213.22	-301.7	424.59	223.16	-249.54	411	231.83	-114.16	782.5	177.97	-180.76	803.24	161.52	-186.09	728.41	175.4	-126.1	710.3	190.72
182	0.75626	150.78	1760.1	307.75	-66.775	1529.7	547.46	-67.787	1535.9	87.66	-44.385	1071	523.81	-61.906	1005.2	171.33	-266.2	1065.3	414.36	-263.31	1076.8	282.13	-282.67	1042.7	347.15	-87.346	1131.1	132.8	-90.204	1167.3	536.63	-141.28	934.4	137.22	-92.526	956.76	569.92	27.272	565.84	508.02	46.666	569.49	373.7	-210.46	541.52	366.34	-228.87	551.98	209.84	409.76	209.84	429.66	-237.69	72.661	274.55	351.95	148.83	382.14	-320.1	57.613	330.6	-352.35	51.197	204.99	331.79	126.97	513.5	200.47	125.69	489.89	198.7	132.53	388.33	-416.69	153.37	315.31	-451.29	154.68	247.87	-553.1	120.07	289.62	128.44	45.463	431.22	-549.58	89.282	258.67	148.19	28.472	466.61	-537.86	87.828	321.99	153.34	27.135	406.79	8.3618	364.34	512.32	75.52	384.86	533.83	108.78	317.74	519.08	57.54	297.55	506.31	-85.747	806.69	551.84	-26.827	844.67	556.92	2.5374	758.83	545.79	-55.111	723.35	538.53	-218.44	458.41	224.05	-269.39	479.36	213.19	-299.25	424.57	223.13	-247.17	410.69	231.81	-110.41	781.82	178.06	-176.96	802.77	161.7	-182.5	727.95	175.52	-122.55	709.64	190.75
183	0.76044	155.62	1759.5	309.07	-61.53	1528.4	548.61	-62.955	1535.5	88.795	-38.834	1070.3	523.99	-57.386	1004.4	171.48	-261.02	1064.6	415.19	-258.42	1076.2	282.95	-277.61	1042	348	-82.742	1130.6	133.29	-84.805	1166.2	537.21	-137.04	933.81	137.5	-86.833	956.02	570.2	33.067	565.27	507.81	51.966	568.9	373.66	-207.29	541	366.32	-225.6	551.56	209.84	413.55	206.75	427.64	-237.36	72.392	274.52	355.02	146.05	380.66	-319.8	57.75	330.57	-352.07	51.428	204.96	335.18	124.98	512.16	204.02	124.64	489.19	201.75	131.12	387.53	-415.8	154.05	315.25	-450.38	155.58	247.81	-552.43	121.49	289.51	130.81	45.268	431.01	-549.09	90.67	258.6	150.53	28.271	466.4	-537.38	89.197	321.9	155.36	26.551	406.58	13.433	363.9	512.41	80.865	384.16	533.46	113.69	316.89	518.54	62.25	296.91	506.18	-79.906	806.06	552.03	-20.986	844.13	556.93	8.4065	758.31	545.66	-49.205	722.76	538.59	-215.73	457.94	224.05	-266.56	479.19	213.17	-296.75	424.57	223.12	-244.74	410.39	231.79	-106.61	781.13	178.17	-173.12	802.3	161.9	-178.87	727.49	175.65	-118.95	708.99	190.8
184	0.76462	160.47	1758.9	310.39	-56.272	1527.1	549.78	-58.119	1535.1	89.952	-33.246	1069.6	524.19	-52.812	1003.6	171.66	-255.81	1063.8	416.02	-253.5	1075.5	283.77	-272.51	1041.3	348.85	-78.089	1130.2	133.79	-79.373	1165.2	537.8	-132.74	933.21	137.8	-81.076	955.32	570.49	38.874	564.74	507.6	57.251	568.32	373.62	-204.05	540.48	366.31	-222.26	551.15	209.85	417.23	203.33	425.64	-237.01	72.113	274.48	357.89	143.03	379.2	-319.48	57.897	330.54	-351.76	51.675	204.92	338.35	122.8	510.84	207.38	123.57	488.52	204.61	129.69	386.75	-414.86	154.75	315.19	-449.44	156.51	247.76	-551.73	122.97	289.41	132.88	45.171	430.84	-548.58	92.121	258.52	152.55	28.15	466.23	-536.88	90.625	321.81	157.04	26.032	406.41	18.461	363.53	512.55	86.177	383.5	533.08	118.51	316.05	518.02	66.877	296.31	506.07	-74.046	805.45	552.22	-15.107	843.61	556.94	14.306	757.82	545.53	-43.284	722.2	538.65	-212.96	457.47	224.06	-263.66	479.03	213.16	-294.18	424.58	223.1	-242.26	410.1	231.78	-102.76	780.44	178.29	-169.22	801.82	162.11	-175.19	727.02	175.81	-115.29	708.33	190.86
185	0.7688	165.33	1758.4	311.72	-51.002	1525.8	550.97	-53.28	1534.7	91.131	-27.624	1068.9	524.4	-48.185	1002.8	171.85	-250.57	1063.1	416.84	-248.54	1074.9	284.58	-267.37	1040.6	349.71	-73.387	1129.7	134.29	-73.906	1164.1	538.42	-128.38	932.6	138.11	-75.26	954.64	570.79	44.687	564.25	507.4	62.503	567.76	373.57	-200.73	539.96	366.32	-218.84	550.74	209.88	420.82	199.61	423.68	-236.64	71.825	274.45	360.61	139.79	377.8	-319.15	58.055	330.51	-351.45	51.939	204.89	341.32	120.45	509.57	210.55	122.5	487.89	207.29	128.24	386	-413.89	155.49	315.13	-448.45	157.49	247.7	-550.99	124.51	289.32	134.68	45.174	430.69	-548.03	93.641	258.45	154.28	28.111	466.09	-536.34	92.117	321.72	158.44	25.591	406.27	23.451	363.24	512.72	91.457	382.88	532.71	123.26	315.25	517.49	71.431	295.76	505.97	-68.174	804.88	552.42	-9.1991	843.12	556.95	20.226	757.35	545.4	-37.359	721.66	538.71	-210.12	457.01	224.07	-260.69	478.89	213.16	-291.55	424.6	223.1	-239.72	409.83	231.78	-98.851	779.76	178.43	-165.27	801.34	162.33	-171.46	726.54	175.98	-111.58	707.67	190.93
186	0.77297	170.21	1757.8	313.04	-45.722	1524.4	552.19	-48.438	1534.4	92.329	-21.973	1068.3	524.63	-43.505	1002	172.06	-245.3	1062.4	417.67	-243.55	1074.2	285.38	-262.19	1039.8	350.55	-68.638	1129.2	134.8	-68.404	1163.1	539.06	-123.97	931.98	138.44	-69.391	954.01	571.1	50.497	563.8	507.21	67.708	567.22	373.51	-197.33	539.45	366.33	-215.34	550.34	209.92	424.34	195.61	421.78	-236.26	71.526	274.41	363.18	136.36	376.45	-318.79	58.226	330.47	-351.12	52.223	204.85	344.1	117.97	508.35	213.56	121.43	487.29	209.82	126.81	385.28	-412.87	156.27	315.07	-447.42	158.52	247.66	-550.2	126.13	289.22	136.25	45.278	430.58	-547.45	95.236	258.39	155.76	28.154	465.97	-535.76	93.68	321.64	159.57	25.234	406.17	28.405	363.03	512.95	96.706	382.31	532.35	127.94	314.48	516.98	75.92	295.26	505.9	-62.299	804.36	552.62	-3.2677	842.67	556.96	26.157	756.91	545.29	-31.442	721.17	538.78	-207.21	456.56	224.1	-257.64	478.75	213.17	-288.84	424.65	223.11	-237.11	409.56	231.79	-94.887	779.08	178.58	-161.27	800.86	162.58	-167.69	726.06	176.19	-107.8	707.02	191.03
187	0.77715	175.09	1757.3	314.37	-40.432	1523.1	553.43	-43.593	1534	93.543	-16.298	1067.7	524.88	-38.772	1001.2	172.29	-240.01	1061.7	418.49	-238.53	1073.5	286.18	-256.97	1039.1	351.4	-63.843	1128.7	135.3	-62.867	1162.1	539.72	-119.5	931.37	138.79	-63.477	953.42	571.42	56.299	563.42	507.04	72.854	566.71	373.44	-193.85	538.93	366.37	-211.75	549.95	209.98	427.78	191.39	419.95	-235.85	71.216	274.37	365.63	132.78	375.18	-318.41	58.411	330.44	-350.76	52.531	204.82	346.72	115.36	507.2	216.43	120.39	486.74	212.21	125.4	384.61	-411.81	157.08	315.01	-446.34	159.6	247.62	-549.35	127.83	289.14	137.63	45.483	430.5	-546.82	96.913	258.33	157.03	28.276	465.88	-535.14	95.319	321.56	160.49	24.969	406.09	33.329	362.91	513.21	101.92	381.79	531.99	132.56	313.77	516.48	80.351	294.83	505.85	-56.428	803.89	552.83	2.6803	842.26	556.98	32.091	756.5	545.19	-25.541	720.72	538.86	-204.22	456.11	224.15	-254.52	478.64	213.2	-286.06	424.72	223.13	-234.43	409.31	231.82	-90.864	778.41	178.74	-157.21	800.39	162.84	-163.85	725.58	176.42	-103.96	706.37	191.13
